<svg id="Layer_1" data-name="Layer 1" xmlns="http://www.w3.org/2000/svg" viewBox="0 0 557.42 99.54"><defs><style>.cls-1{fill:#245d38;}.cls-2{fill:#ffd100;}.cls-3{fill:#c3002f;}.cls-4{fill:#7a853b;}.cls-5{fill:#6d3a5d;}.cls-6{fill:#001970;}.cls-7{fill:#35647e;}.cls-8{fill:#0f98d5;}.cls-9{fill:#fff;}</style></defs><path class="cls-1" d="M43.48,80.63a52.32,52.32,0,0,1-4.14-6l-.22-.32c-.91-1.65-1.77-3.33-2.53-5.07-.21-.51-.43-1-.63-1.57A49.56,49.56,0,0,1,32.6,47.05,48.63,48.63,0,0,1,39,25.29a1.39,1.39,0,0,1,.12-.32c1.06-1.7,2.14-3.37,3.34-5-.55-1-1.14-2-1.78-3.19-3.92-7-5.9-10.34-9.84-16.81C26.89,6.59,24.92,10,21,17.09,17.07,24,15.12,27.5,11.27,34.86a64.48,64.48,0,0,1,8-1.64c-.82,2-1.23,3-2.05,5.06-4.66,9.25-9.1,18.66-13.28,28.13a63.11,63.11,0,0,1,8.31-2.54C8,74.07,4,84.28,0,94.59,21.66,87.11,39.36,87,61.07,94.4A50.9,50.9,0,0,1,48.55,86,48.66,48.66,0,0,1,43.48,80.63Z"/><path class="cls-2" d="M82.23,25.67A24,24,0,0,0,63.7,34.36l-.12.14A24.11,24.11,0,0,0,58.1,49.8c0,.24,0,.46,0,.68L72.73,37.73l10,8.71,10-8.71,13.66,11.92a23.65,23.65,0,0,0-1.86-9.13A24,24,0,0,0,82.23,25.67Z"/><path class="cls-3" d="M39,25.29a48.63,48.63,0,0,0-6.4,21.76A49.56,49.56,0,0,0,36,67.67c.2.53.42,1.06.63,1.57L55.51,52.75c0-.33-.08-.67-.11-1,0-.6-.07-1.23-.07-1.94a26.9,26.9,0,0,1,6.15-17.11l.12-.14a26.88,26.88,0,0,1,45.45,6.9v0q10-4.06,20-8.07c.44-.19.57-.32.34-.83-.81-1.89-1.76-3.76-2.75-5.6-.09-.15-.19-.31-.28-.44Q110.85,2.79,85.36.43A45.06,45.06,0,0,0,70.87,1.56,49,49,0,0,0,43.08,19.19c-.22.26-.41.54-.62.81-1.2,1.6-2.28,3.27-3.34,5A1.39,1.39,0,0,0,39,25.29Z"/><path class="cls-4" d="M72.73,37.73,58.12,50.48c0,.36,0,.71.05,1.05a24.09,24.09,0,0,0,3.4,10.74c.41.67.76,1.18,1.09,1.64l20-17.47Z"/><path class="cls-5" d="M59.23,63.77a27.07,27.07,0,0,1-3.72-11L36.59,69.24c.76,1.74,1.62,3.42,2.53,5.07l.22.32a52.32,52.32,0,0,0,4.14,6l.73-.63L60.57,65.74l-.08-.1C60.1,65.11,59.7,64.51,59.23,63.77Z"/><path class="cls-6" d="M126.8,67.8q-9.81-4-19.63-7.92h0a26.53,26.53,0,0,1-2.81,5.21,26.89,26.89,0,0,1-43.78.64L44.21,80l-.73.63A48.66,48.66,0,0,0,48.55,86,50.9,50.9,0,0,0,61.07,94.4,49.75,49.75,0,0,0,80.61,99a46.73,46.73,0,0,0,15-1.93,49.26,49.26,0,0,0,24.1-15.7c.43-.5.84-1,1.25-1.54a58.86,58.86,0,0,0,3.68-5.48A51.84,51.84,0,0,0,127.27,69c.06-.18.12-.31.16-.41l.06-.16-.06-.25C127.33,68,127.14,68,126.8,67.8Z"/><path class="cls-7" d="M82.71,46.44l19.16,16.71.28.24a22.89,22.89,0,0,0,2.44-4.54,23.84,23.84,0,0,0,1.76-9.05v-.15L92.69,37.73Z"/><path class="cls-6" d="M82.71,46.44l-20,17.47.07.09a24.11,24.11,0,0,0,39.34-.48l.08-.13-.28-.24Z"/><path d="M111.4,93.93h-1.06a.13.13,0,0,1-.13-.13v-.57a.13.13,0,0,1,.13-.13h3a.13.13,0,0,1,.14.13v.57a.13.13,0,0,1-.14.13h-1.06v3.9a.13.13,0,0,1-.13.13h-.64a.14.14,0,0,1-.14-.13Z"/><path d="M115.35,93.14a.11.11,0,0,1,.12-.11h.11a.13.13,0,0,1,.12.07l1.53,3.28h0l1.53-3.28a.12.12,0,0,1,.12-.07H119a.11.11,0,0,1,.12.11L120,97.8a.12.12,0,0,1-.13.16h-.63a.15.15,0,0,1-.13-.1l-.41-2.63h0L117.42,98a.13.13,0,0,1-.12.07h-.13a.13.13,0,0,1-.12-.07l-1.22-2.73h0l-.4,2.63a.13.13,0,0,1-.12.1h-.63c-.09,0-.14-.06-.13-.16Z"/><path d="M284,6.13a8.14,8.14,0,0,1,5.37,2,.7.7,0,0,0,1,0l3.1-3.22a.76.76,0,0,0,0-1.12A13.39,13.39,0,0,0,283.78.13a14.31,14.31,0,1,0,0,28.62,13.66,13.66,0,0,0,9.66-3.85.8.8,0,0,0,0-1.08l-3.1-3.3a.79.79,0,0,0-1,0A8.42,8.42,0,0,1,284,22.4a7.89,7.89,0,0,1-7.83-8.08A7.92,7.92,0,0,1,284,6.13"/><path d="M319.16.12a14.26,14.26,0,0,0-14.28,14.36,14.3,14.3,0,0,0,28.59,0A14.29,14.29,0,0,0,319.16.12m0,22.28a8,8,0,1,1,7.95-7.92,8,8,0,0,1-7.95,7.92"/><path d="M362.58,22.51H353V1.28a.77.77,0,0,0-.75-.75H347.5a.75.75,0,0,0-.76.75V27.6a.76.76,0,0,0,.76.76h15.08a.75.75,0,0,0,.75-.76V23.27a.75.75,0,0,0-.75-.76"/><path d="M388.55.12a14.26,14.26,0,0,0-14.28,14.36,14.3,14.3,0,0,0,28.6,0A14.3,14.3,0,0,0,388.55.12m0,22.28a8,8,0,1,1,8-7.92,8,8,0,0,1-8,7.92"/><path d="M432.38,17.11c3.46-1.4,5.88-4.34,5.88-8A8.65,8.65,0,0,0,429.6.53H417.7a.74.74,0,0,0-.75.75V27.6a.75.75,0,0,0,.75.76h4.74a.79.79,0,0,0,.75-.76V17.47h2.75L431.62,28a.72.72,0,0,0,.63.36h5.29a.75.75,0,0,0,.68-1.15Zm-3.3-4.7h-5.89V6.21h5.89a3,3,0,0,1,3,3,3.18,3.18,0,0,1-3,3.18"/><path d="M502.42.53h-9.7a.74.74,0,0,0-.71.75V27.6a.74.74,0,0,0,.71.75h9.7a13.91,13.91,0,1,0,0-27.82M502,22.47h-3.81V6.37H502a7.73,7.73,0,0,1,7.76,8A7.75,7.75,0,0,1,502,22.47"/><path d="M543.11.12a14.26,14.26,0,0,0-14.28,14.36,14.3,14.3,0,0,0,28.59,0A14.29,14.29,0,0,0,543.11.12m0,22.28a8,8,0,1,1,7.95-7.92,8,8,0,0,1-7.95,7.92"/><path d="M465.73.56a.8.8,0,0,0-.67-.44h-.4a.83.83,0,0,0-.69.44L451.53,27.32a.69.69,0,0,0,.67,1h4.38a1.27,1.27,0,0,0,1.42-1l1.44-3.18h10.83l1.43,3.14c.4.86.57,1,1.39,1h4.41a.7.7,0,0,0,.68-1ZM461.21,19.5l3.62-8.33,3.66,8.33Z"/><path d="M269.43,67.57h2.29V53.72h-2.29V51.05h8.8a8.77,8.77,0,0,1,3.43.51A4.61,4.61,0,0,1,284.57,56a4.49,4.49,0,0,1-2.35,4.1v.06a4.44,4.44,0,0,1,3.11,4.53,5.33,5.33,0,0,1-3.81,5.21,10,10,0,0,1-2.86.33h-9.23Zm9.2-8.69A2.27,2.27,0,0,0,281,56.37a2.36,2.36,0,0,0-1.1-2.19,3.87,3.87,0,0,0-1.65-.29h-3v5Zm.19,8.5a4,4,0,0,0,1.38-.21,2.83,2.83,0,0,0,1.54-2.7A2.59,2.59,0,0,0,279,61.69h-3.7v5.69Z"/><path d="M294.35,56.13c4,0,6.13,2.88,6.13,6.53,0,.4-.08,1.16-.08,1.16h-9.53A4,4,0,0,0,295,67.65a7,7,0,0,0,4-1.45l1.32,2.42a8.73,8.73,0,0,1-5.56,1.92,7,7,0,0,1-7.39-7.21C287.36,59.1,290.22,56.13,294.35,56.13Zm2.59,5.66c-.05-1.88-1.21-3-2.67-3a3.35,3.35,0,0,0-3.32,3Z"/><path d="M302,67.65h2v-14h-2.13V51.05h5.56v6.7a8,8,0,0,1-.08,1.16h.05a5.36,5.36,0,0,1,4.75-2.78c3.05,0,4.81,1.59,4.81,5.23v6.29h2v2.57h-5.42V62.07c0-1.68-.43-2.81-2.16-2.81-2.43,0-3.94,2.1-3.94,4.64v3.75h2v2.57H302Z"/><path d="M327.77,61.71h.87v-.46c0-1.75-1.11-2.37-2.54-2.37a7.62,7.62,0,0,0-3.89,1.32L321,57.83a9.35,9.35,0,0,1,5.45-1.7c3.7,0,5.67,1.91,5.67,5.42v5.51a.52.52,0,0,0,.59.59h1.24v2.57h-3.24c-1.27,0-1.75-.68-1.75-1.46V68.6a2.61,2.61,0,0,1,.08-.7h-.05a4.81,4.81,0,0,1-4.35,2.64c-2.35,0-4.56-1.38-4.56-4.18C320,62.15,325.56,61.71,327.77,61.71ZM325.48,68c1.86,0,3.18-2,3.18-3.73v-.46h-.56c-1.35,0-4.62.22-4.62,2.3A1.86,1.86,0,0,0,325.48,68Z"/><path d="M334.53,56.45h6.61V59H339.6L342,65.82a6.67,6.67,0,0,1,.35,1.51h.08a7.75,7.75,0,0,1,.32-1.51l2.4-6.81h-1.56V56.45h6.61V59h-1.64l-4.22,11.21h-3.94L336.2,59h-1.67Z"/><path d="M351.43,67.65h2V59h-2.14V56.45h5.56v11.2h2v2.57h-7.39Zm2-16.6h3.45V54.1H353.4Z"/><path d="M367.84,56.13c4.21,0,7.59,3,7.59,7.2a7.23,7.23,0,0,1-7.56,7.21c-4.21,0-7.59-3-7.59-7.21A7.24,7.24,0,0,1,367.84,56.13Zm0,11.49a4.29,4.29,0,1,0-4.1-4.29A4.08,4.08,0,0,0,367.87,67.62Z"/><path d="M377.32,67.65h2v-8a.55.55,0,0,0-.6-.6h-1.53V56.45h3.59c1.21,0,1.83.51,1.83,1.67v.81a6.8,6.8,0,0,1-.05.87h.05A4.74,4.74,0,0,1,387,56.26a3.44,3.44,0,0,1,.62.06v3.37a6.5,6.5,0,0,0-.83,0c-2.78,0-4,2.43-4,5v3h2v2.57h-7.4Z"/><path d="M396.33,61.71h.86v-.46c0-1.75-1.11-2.37-2.54-2.37a7.57,7.57,0,0,0-3.88,1.32l-1.27-2.37a9.35,9.35,0,0,1,5.45-1.7c3.7,0,5.67,1.91,5.67,5.42v5.51a.52.52,0,0,0,.59.59h1.24v2.57h-3.24c-1.26,0-1.75-.68-1.75-1.46V68.6a2.61,2.61,0,0,1,.08-.7h-.05a4.79,4.79,0,0,1-4.35,2.64c-2.35,0-4.56-1.38-4.56-4.18C388.58,62.15,394.11,61.71,396.33,61.71ZM394,68c1.86,0,3.19-2,3.19-3.73v-.46h-.57c-1.35,0-4.62.22-4.62,2.3A1.86,1.86,0,0,0,394,68Z"/><path d="M404.83,53.62H402.7V51.05h5.53V65.63c0,1.24.27,1.89,1.41,1.89.38,0,.65,0,.65,0v2.75a9,9,0,0,1-1.25.09c-2.18,0-4.21-.73-4.21-4.49Z"/><path d="M418.68,67.57H421V53.72h-2.3V51.05h8.16v2.67h-2.33v5.54h8.72V53.72h-2.32V51.05h8.15v2.67h-2.29V67.57h2.29v2.65h-8.15V67.57h2.32V62.09h-8.72v5.48h2.33v2.65h-8.16Z"/><path d="M448.08,56.13c4,0,6.13,2.88,6.13,6.53,0,.4-.08,1.16-.08,1.16H444.6a4,4,0,0,0,4.13,3.83,7,7,0,0,0,4-1.45l1.32,2.42a8.73,8.73,0,0,1-5.56,1.92,7.06,7.06,0,0,1-7.4-7.21C441.09,59.1,444,56.13,448.08,56.13Zm2.6,5.66c-.06-1.88-1.22-3-2.68-3a3.36,3.36,0,0,0-3.32,3Z"/><path d="M463.45,61.71h.86v-.46c0-1.75-1.11-2.37-2.54-2.37a7.57,7.57,0,0,0-3.88,1.32l-1.27-2.37a9.35,9.35,0,0,1,5.45-1.7c3.7,0,5.67,1.91,5.67,5.42v5.51a.52.52,0,0,0,.59.59h1.24v2.57h-3.23c-1.27,0-1.76-.68-1.76-1.46V68.6a2.61,2.61,0,0,1,.08-.7h-.05a4.79,4.79,0,0,1-4.35,2.64c-2.35,0-4.56-1.38-4.56-4.18C455.7,62.15,461.23,61.71,463.45,61.71ZM461.15,68c1.87,0,3.19-2,3.19-3.73v-.46h-.57c-1.35,0-4.61.22-4.61,2.3A1.85,1.85,0,0,0,461.15,68Z"/><path d="M472,53.62h-2.13V51.05h5.54V65.63c0,1.24.26,1.89,1.4,1.89.38,0,.65,0,.65,0v2.75a9,9,0,0,1-1.25.09c-2.18,0-4.21-.73-4.21-4.49Z"/><path d="M480.62,59h-2.1V56.45h2.21V52.7h3.32v3.75h3.13V59h-3.13v5.81a2.47,2.47,0,0,0,2.75,2.67,5.53,5.53,0,0,0,.62,0v2.81a6.34,6.34,0,0,1-1.05.08c-1.94,0-5.75-.57-5.75-5.18Z"/><path d="M488.78,67.65h2v-14h-2.13V51.05h5.56v6.7a8,8,0,0,1-.08,1.16h.05a5.37,5.37,0,0,1,4.75-2.78c3.05,0,4.81,1.59,4.81,5.23v6.29h2v2.57H500.3V62.07c0-1.68-.43-2.81-2.16-2.81-2.43,0-3.94,2.1-3.94,4.64v3.75h2v2.57h-7.39Z"/><path d="M268.4,96.57h1.76l5.75-16.52h4l5.75,16.52h1.75v2.65h-7.2V96.57h1.89L280.93,93h-6.05l-1.19,3.59h1.89v2.65H268.4Zm11.72-6.34-1.81-5.43a7.86,7.86,0,0,1-.35-1.67h-.08a11.11,11.11,0,0,1-.35,1.67l-1.84,5.43Z"/><path d="M294.75,85.13a4.37,4.37,0,0,1,4,1.94h.06a7.42,7.42,0,0,1-.06-1V82.62h-2.13V80.05h5.53v16a.53.53,0,0,0,.6.59H304v2.57h-3.24c-1.24,0-1.76-.68-1.76-1.46V97.6A2.14,2.14,0,0,1,299,97H299a4.76,4.76,0,0,1-4.51,2.56c-3.67,0-6-2.94-6-7.21S291,85.13,294.75,85.13Zm.57,11.52c1.81,0,3.48-1.29,3.48-4.24,0-2.24-1.1-4.34-3.37-4.34-1.95,0-3.51,1.54-3.51,4.26S293.32,96.65,295.32,96.65Z"/><path d="M305.77,96.65h2V88.58a.53.53,0,0,0-.6-.57h-1.53V85.45h3.59c1.21,0,1.81.57,1.81,1.54v.62a3.32,3.32,0,0,1-.06.59H311a5.51,5.51,0,0,1,4.69-3.07,3.61,3.61,0,0,1,3.83,3h.06a5.35,5.35,0,0,1,4.78-3c2.78,0,4.42,1.62,4.42,5.23v6.29h2v2.57h-5.43V91c0-1.56-.29-2.75-1.88-2.75-2.35,0-3.51,2.35-3.51,4.88v3.51h2v2.57H316.6V91c0-1.48-.25-2.75-1.87-2.75-2.43,0-3.53,2.56-3.53,5v3.34h2v2.57h-7.4Z"/><path d="M332.42,96.65h2V88h-2.13V85.45h5.56v11.2h2v2.57h-7.4Zm2-16.6h3.46v3h-3.46Z"/><path d="M341.6,96.65h2v-8a.55.55,0,0,0-.6-.6h-1.54V85.45h3.62c1.22,0,1.78.57,1.78,1.54v.62a4,4,0,0,1-.05.59h.05a5.54,5.54,0,0,1,5.08-3.07c2.94,0,4.61,1.59,4.61,5.23v6.29h2v2.57h-5.4V91.07c0-1.68-.46-2.81-2.18-2.81-2.49,0-3.94,2.37-3.94,4.77v3.62h2v2.57h-7.4Z"/><path d="M360.15,96.65h2V88H360V85.45h5.56v11.2h2v2.57h-7.39Zm2-16.6h3.45v3h-3.45Z"/><path d="M369,94.63H372v.81c0,.94,1.26,1.43,2.7,1.43s2.34-.49,2.34-1.41c0-1.16-1.29-1.45-3.13-2.13-2-.7-4.34-1.64-4.34-4.26,0-2.92,2.91-3.94,5.42-3.94,2,0,5,.78,5,2.86v1.75H377V89c0-.7-.81-1.13-2-1.13s-2,.37-2,1.24c0,1.13,1.34,1.59,2.88,2.05,2.11.67,4.59,1.54,4.59,4.24s-2.64,4.18-5.8,4.18c-2.51,0-5.59-1.08-5.59-3.32Z"/><path d="M383.77,88h-2.1V85.45h2.21V81.7h3.32v3.75h3.13V88H387.2v5.81A2.47,2.47,0,0,0,390,96.49a5.53,5.53,0,0,0,.62,0v2.81a6.34,6.34,0,0,1-1.05.08c-1.94,0-5.75-.57-5.75-5.18Z"/><path d="M392.39,96.65h2v-8a.54.54,0,0,0-.59-.6h-1.54V85.45h3.59c1.22,0,1.84.51,1.84,1.67v.81a5.69,5.69,0,0,1-.06.87h.06a4.73,4.73,0,0,1,4.37-3.54,3.59,3.59,0,0,1,.62.06v3.37a6.57,6.57,0,0,0-.84,0c-2.78,0-4,2.43-4,5v3h2v2.57h-7.39Z"/><path d="M411.39,90.71h.87v-.46c0-1.75-1.11-2.37-2.54-2.37a7.62,7.62,0,0,0-3.89,1.32l-1.27-2.37a9.4,9.4,0,0,1,5.46-1.7c3.69,0,5.66,1.91,5.66,5.42v5.51a.53.53,0,0,0,.6.59h1.24v2.57h-3.24c-1.27,0-1.75-.68-1.75-1.46V97.6a2.61,2.61,0,0,1,.08-.7h-.06a4.79,4.79,0,0,1-4.34,2.64c-2.35,0-4.57-1.38-4.57-4.18C403.64,91.15,409.18,90.71,411.39,90.71ZM409.1,97c1.86,0,3.18-2,3.18-3.73v-.46h-.56c-1.35,0-4.62.22-4.62,2.3A1.86,1.86,0,0,0,409.1,97Z"/><path d="M420.52,88h-2.11V85.45h2.22V81.7H424v3.75h3.13V88H424v5.81a2.47,2.47,0,0,0,2.75,2.67,5.53,5.53,0,0,0,.62,0v2.81a6.34,6.34,0,0,1-1.05.08c-1.94,0-5.75-.57-5.75-5.18Z"/><path d="M429.13,96.65h2V88H429V85.45h5.56v11.2h2v2.57h-7.4Zm2-16.6h3.46v3H431.1Z"/><path d="M445.55,85.13c4.21,0,7.58,3,7.58,7.2a7.22,7.22,0,0,1-7.56,7.21c-4.21,0-7.58-3-7.58-7.21A7.23,7.23,0,0,1,445.55,85.13Zm0,11.49a4.29,4.29,0,1,0-4.1-4.29A4.09,4.09,0,0,0,445.57,96.62Z"/><path d="M455,96.65h2v-8a.54.54,0,0,0-.59-.6h-1.54V85.45h3.62c1.21,0,1.78.57,1.78,1.54v.62a3.32,3.32,0,0,1-.06.59h.06a5.52,5.52,0,0,1,5.07-3.07c2.95,0,4.62,1.59,4.62,5.23v6.29h2v2.57h-5.4V91.07c0-1.68-.46-2.81-2.19-2.81-2.48,0-3.94,2.37-3.94,4.77v3.62h2v2.57H455Z"/><rect x="252.12" y="0.24" width="1.3" height="99"/><path class="cls-8" d="M236.28,51.22c0-.5,0-1,0-1.48a49.5,49.5,0,1,0-99,0c0,.49,0,1,0,1.48L186.82,71.3Z"/><path class="cls-6" d="M186.82,74.3l-.53-.21-48.76-19.8a49.49,49.49,0,0,0,98.57,0Z"/><path class="cls-9" d="M170.7,78a.32.32,0,0,1,.32-.32h3.88a3.35,3.35,0,0,1,3.58,3.1,3.31,3.31,0,0,1-1.93,2.63,3.17,3.17,0,0,1,2.23,2.72,3.4,3.4,0,0,1-3.63,3.22H171a.32.32,0,0,1-.32-.32Zm3.9,4.41a1.19,1.19,0,0,0,1.17-1.2,1.14,1.14,0,0,0-1.17-1.13h-1.3v2.33Zm.22,4.55a1.21,1.21,0,0,0,1.2-1.21,1.34,1.34,0,0,0-1.37-1.17H173.3v2.38Z"/><path class="cls-9" d="M181.9,78a.33.33,0,0,1,.32-.32h2a.32.32,0,0,1,.32.32v4.2h4.76V78a.32.32,0,0,1,.32-.32h2a.33.33,0,0,1,.32.32V89a.33.33,0,0,1-.32.32h-2a.32.32,0,0,1-.32-.32V84.62h-4.76V89a.32.32,0,0,1-.32.32h-2a.33.33,0,0,1-.32-.32Z"/><path class="cls-9" d="M194.26,88.88l5.22-11.21a.34.34,0,0,1,.28-.18h.17a.33.33,0,0,1,.28.18l5.22,11.21a.3.3,0,0,1-.29.44h-1.85c-.3,0-.43-.1-.58-.42l-.6-1.32h-4.53l-.6,1.34a.62.62,0,0,1-.6.4h-1.83A.3.3,0,0,1,194.26,88.88Zm6.85-3.56-1.26-2.75h0l-1.25,2.75Z"/><path class="cls-9" d="M172.51,10.85a15.05,15.05,0,0,0-15,15,29.91,29.91,0,0,0,4,14.42,54,54,0,0,0,8.75,11.51A78.42,78.42,0,0,0,182.93,62.3a1.17,1.17,0,0,0,.61.17,1.07,1.07,0,0,0,.55-.14,1.14,1.14,0,0,0,.59-1V17.42a1.18,1.18,0,0,0-.24-.69,14.93,14.93,0,0,0-11.93-5.88"/><path class="cls-9" d="M216.71,31.83a5.92,5.92,0,0,0-.28-4.56,5.86,5.86,0,0,0-2.36-2.54,5.49,5.49,0,0,0,.19-3.91,5.59,5.59,0,0,0-5.8-3.84,6.61,6.61,0,0,0-11.77-3.58,6,6,0,0,0-4.24.14,6.5,6.5,0,0,0-4,6.18V58a4.93,4.93,0,0,0,5.1,4.88,5.08,5.08,0,0,0,4.87-3.42,5.43,5.43,0,0,0,5.65-3.91,5.27,5.27,0,0,0,.14-.57,7.83,7.83,0,0,0,5.86-8.68,7.61,7.61,0,0,0-.36-1.48,6.34,6.34,0,0,0,4.95-10.18,5.85,5.85,0,0,0,2-2.82M204.14,52.77a5.48,5.48,0,0,0-2.92-3.6,5.41,5.41,0,0,0-1.83-4.51,7.36,7.36,0,0,0,2.52-2.9,5.66,5.66,0,0,1,2.23,11M190.63,44a7.19,7.19,0,0,0,4.79,1.83,7.36,7.36,0,0,0,1.55-.17,3.26,3.26,0,0,1-2,6.19,1.08,1.08,0,1,0-.58,2.08,5.59,5.59,0,0,0,1.46.2,5.43,5.43,0,0,0,4.79-2.87A3.26,3.26,0,0,1,202,55a3.3,3.3,0,0,1-3.23,2.36,1.08,1.08,0,0,0-1.06-1,1.08,1.08,0,0,0-1.1,1.05c-.06,2.47-1.62,3.35-3.1,3.35A2.75,2.75,0,0,1,190.63,58Zm11.93-4.45a7.21,7.21,0,0,0-9.34-7.78,1.07,1.07,0,0,0-.7,1.36,1,1,0,0,0,.53.63,1.14,1.14,0,0,0,.83.07A5,5,0,0,1,197,43.45l-.11,0a1,1,0,0,0-.28.08,5.06,5.06,0,0,1-5.94-3.33V19.72a4.35,4.35,0,0,1,2.64-4.17,3.92,3.92,0,0,1,4.34.93A1.08,1.08,0,0,0,199.15,15c-.17-.17-.35-.33-.53-.48a4.45,4.45,0,0,1,7,5.49,1.09,1.09,0,0,0,.3,1.5,1.11,1.11,0,0,0,1.5-.31,6.49,6.49,0,0,0,.89-2,3.4,3.4,0,1,1-2.53,4.39,5.43,5.43,0,0,0-10.52,2.67,1.07,1.07,0,0,0,1.31.79,1.08,1.08,0,0,0,.79-1.31,3.26,3.26,0,0,1,6.33-1.6l0,.08a5.57,5.57,0,0,0,9.16,2.31,3.8,3.8,0,0,1-.09,6.79h0a3.67,3.67,0,0,1-2.18.35,4.88,4.88,0,0,0-3-5.09,1.13,1.13,0,0,0-.83,0,1.11,1.11,0,0,0-.58.59,1.09,1.09,0,0,0,.6,1.41,2.71,2.71,0,0,1,1.49,3.52,2.7,2.7,0,0,1-3.51,1.49,1.08,1.08,0,1,0-.81,2,4.88,4.88,0,0,0,5.9-1.87,6,6,0,0,0,2.86-.09,4.18,4.18,0,0,1,.86,4.3,4.17,4.17,0,0,1-5.13,2.54,7.9,7.9,0,0,0-5.85-2.9"/></svg>